<svg width="20" height="20" viewBox="0 0 20 20" fill="none" xmlns="http://www.w3.org/2000/svg">
<g id="Icons / calculator">
<path id="Vector" d="M6.66683 11.6667V11.675M10.0002 11.6667V11.675M13.3335 11.6667V11.675M6.66683 14.1667V14.175M10.0002 14.1667V14.175M13.3335 14.1667V14.175M3.3335 4.16667C3.3335 3.72464 3.50909 3.30072 3.82165 2.98816C4.13421 2.67559 4.55814 2.5 5.00016 2.5H15.0002C15.4422 2.5 15.8661 2.67559 16.1787 2.98816C16.4912 3.30072 16.6668 3.72464 16.6668 4.16667V15.8333C16.6668 16.2754 16.4912 16.6993 16.1787 17.0118C15.8661 17.3244 15.4422 17.5 15.0002 17.5H5.00016C4.55814 17.5 4.13421 17.3244 3.82165 17.0118C3.50909 16.6993 3.3335 16.2754 3.3335 15.8333V4.16667ZM6.66683 6.66667C6.66683 6.44565 6.75463 6.23369 6.91091 6.07741C7.06719 5.92113 7.27915 5.83333 7.50016 5.83333H12.5002C12.7212 5.83333 12.9331 5.92113 13.0894 6.07741C13.2457 6.23369 13.3335 6.44565 13.3335 6.66667V7.5C13.3335 7.72101 13.2457 7.93298 13.0894 8.08926C12.9331 8.24554 12.7212 8.33333 12.5002 8.33333H7.50016C7.27915 8.33333 7.06719 8.24554 6.91091 8.08926C6.75463 7.93298 6.66683 7.72101 6.66683 7.5V6.66667Z" stroke="white" stroke-width="1.4" stroke-linecap="round" stroke-linejoin="round"/>
</g>
</svg>
