<svg width="24" height="24" viewBox="0 0 24 24" fill="none" xmlns="http://www.w3.org/2000/svg">
<g id="Icons / car">
<path id="Vector" d="M4 17C4 17.5304 4.21071 18.0391 4.58579 18.4142C4.96086 18.7893 5.46957 19 6 19C6.53043 19 7.03914 18.7893 7.41421 18.4142C7.78929 18.0391 8 17.5304 8 17M4 17C4 16.4696 4.21071 15.9609 4.58579 15.5858C4.96086 15.2107 5.46957 15 6 15C6.53043 15 7.03914 15.2107 7.41421 15.5858C7.78929 15.9609 8 16.4696 8 17M4 17H2V11M8 17H16M16 17C16 17.5304 16.2107 18.0391 16.5858 18.4142C16.9609 18.7893 17.4696 19 18 19C18.5304 19 19.0391 18.7893 19.4142 18.4142C19.7893 18.0391 20 17.5304 20 17M16 17C16 16.4696 16.2107 15.9609 16.5858 15.5858C16.9609 15.2107 17.4696 15 18 15C18.5304 15 19.0391 15.2107 19.4142 15.5858C19.7893 15.9609 20 16.4696 20 17M20 17H22V13C22 12.4696 21.7893 11.9609 21.4142 11.5858C21.0391 11.2107 20.5304 11 20 11H19M2 11L4 6H15L19 11M2 11H19M13 11V6" stroke="#BCBCBC" stroke-width="2" stroke-linecap="round" stroke-linejoin="round"/>
</g>
</svg>
