<svg width="254" height="84" viewBox="0 0 254 84" fill="none" xmlns="http://www.w3.org/2000/svg">
<path d="M90.5845 55.2747C89.9763 55.2747 89.4501 55.1123 89.0062 54.7874C88.5624 54.4626 88.3486 54.0077 88.3486 53.4229C88.3486 52.8056 88.5787 52.3346 89.0391 51.9934C89.4994 51.6524 90.1242 51.49 90.897 51.49C91.5216 51.49 92.1299 51.5712 92.7217 51.7336V51.5549C92.7217 51.0351 92.5738 50.6452 92.2615 50.3691C91.949 50.093 91.5216 49.963 90.9462 49.963C90.3544 49.963 89.746 50.1091 89.1213 50.3854L88.8583 49.6706C89.5981 49.3294 90.3214 49.167 91.0284 49.167C91.8833 49.167 92.5244 49.3782 92.9684 49.8167C93.3794 50.2228 93.5932 50.8076 93.5932 51.5549V55.1611H92.7053V54.2838C92.1956 54.9499 91.4887 55.2747 90.5845 55.2747ZM90.7489 54.5762C91.308 54.5762 91.7683 54.4301 92.1628 54.1377C92.5409 53.8453 92.7382 53.4555 92.7382 53.0006V52.4321C92.1463 52.2695 91.5709 52.1883 90.9955 52.1883C90.453 52.1883 90.0256 52.3021 89.7132 52.5133C89.4009 52.7244 89.2528 53.0331 89.2528 53.4067C89.2528 53.7641 89.4009 54.0565 89.6803 54.2677C89.9763 54.4626 90.3379 54.5762 90.7489 54.5762Z" fill="white"/>
<path d="M96.667 55.1609V49.248H99.5606C100.152 49.248 100.629 49.378 100.991 49.6541C101.352 49.9141 101.517 50.2714 101.517 50.7263C101.517 51.3598 101.188 51.8147 100.514 52.0908C101.402 52.3344 101.829 52.8217 101.829 53.5527C101.829 54.0563 101.632 54.4461 101.237 54.7385C100.843 55.0309 100.317 55.1772 99.6592 55.1772H96.667V55.1609ZM97.5548 51.7822H99.3962C99.7742 51.7822 100.054 51.7009 100.284 51.5384C100.498 51.376 100.613 51.1323 100.613 50.8401C100.613 50.5963 100.514 50.3852 100.3 50.239C100.087 50.0928 99.7907 50.0116 99.4126 50.0116H97.5548V51.7822ZM97.5548 54.3975H99.5441C99.9716 54.3975 100.3 54.3163 100.547 54.1375C100.794 53.9588 100.925 53.7151 100.925 53.4066C100.925 53.1142 100.794 52.8868 100.531 52.7242C100.267 52.5618 99.9058 52.4806 99.4291 52.4806H97.5548V54.3975Z" fill="white"/>
<path d="M106.055 55.1609V50.0278H103.917V49.248H109.096V50.0278H106.959V55.1609H106.055Z" fill="white"/>
<path d="M116.511 54.3813C115.902 54.9822 115.162 55.291 114.275 55.291C113.387 55.291 112.647 54.9822 112.055 54.3813C111.463 53.7803 111.167 53.0493 111.167 52.2046C111.167 51.3599 111.463 50.629 112.072 50.0279C112.664 49.4269 113.42 49.1182 114.308 49.1182C115.195 49.1182 115.935 49.4269 116.527 50.0279C117.119 50.629 117.415 51.3599 117.415 52.2046C117.415 53.0493 117.119 53.7803 116.511 54.3813ZM114.308 54.4949C114.949 54.4949 115.475 54.2676 115.886 53.8289C116.297 53.3904 116.511 52.8381 116.511 52.1884C116.511 51.5548 116.297 51.0026 115.869 50.5478C115.442 50.0929 114.916 49.8654 114.291 49.8654C113.65 49.8654 113.124 50.0929 112.713 50.5315C112.302 50.97 112.105 51.5224 112.105 52.1721C112.105 52.8057 112.318 53.3579 112.746 53.7964C113.157 54.2838 113.683 54.4949 114.308 54.4949Z" fill="white"/>
<path d="M120.177 55.1609V49.248H121.015L123.251 52.3669L125.487 49.248H126.342V55.1609H125.438V50.645L123.235 53.6339L121.048 50.645V55.1446H120.177V55.1609Z" fill="white"/>
<path d="M134.464 54.3813C133.856 54.9822 133.115 55.291 132.227 55.291C131.34 55.291 130.6 54.9822 130.009 54.3813C129.416 53.7801 129.121 53.0492 129.121 52.2046C129.121 51.3599 129.416 50.6288 130.024 50.0279C130.617 49.4269 131.373 49.1182 132.261 49.1182C133.149 49.1182 133.888 49.4269 134.481 50.0279C135.072 50.6288 135.369 51.3599 135.369 52.2046C135.369 53.0492 135.072 53.7801 134.464 54.3813ZM132.261 54.4949C132.903 54.4949 133.428 54.2676 133.839 53.8289C134.25 53.3904 134.464 52.838 134.464 52.1883C134.464 51.5548 134.25 51.0025 133.822 50.5476C133.395 50.0928 132.869 49.8654 132.244 49.8654C131.602 49.8654 131.077 50.0928 130.666 50.5315C130.255 50.97 130.058 51.5224 130.058 52.1721C130.058 52.8055 130.272 53.3579 130.699 53.7964C131.11 54.2838 131.636 54.4949 132.261 54.4949Z" fill="white"/>
<path d="M140.941 55.2908C140.021 55.2908 139.281 54.9984 138.738 54.3974C138.18 53.7963 137.916 52.9841 137.916 51.9607C137.916 51.5871 137.916 51.2622 137.932 51.0024C137.949 50.7425 137.981 50.4501 138.032 50.1252C138.08 49.8003 138.146 49.5242 138.245 49.2967C138.343 49.0694 138.475 48.8419 138.64 48.6145C138.805 48.387 139.002 48.2084 139.265 48.0622C139.511 47.916 139.824 47.8023 140.152 47.7211L143.489 46.9414L143.671 47.6885L140.432 48.4845C139.824 48.6307 139.396 48.8743 139.133 49.2155C138.87 49.5404 138.722 50.0115 138.672 50.5962C139.182 49.7353 140.004 49.313 141.155 49.313C141.944 49.313 142.618 49.6054 143.177 50.1739C143.737 50.7425 144.016 51.441 144.016 52.2531C144.016 53.0978 143.72 53.8126 143.127 54.3974C142.553 54.9984 141.813 55.2908 140.941 55.2908ZM140.974 54.4948C141.582 54.4948 142.093 54.2836 142.487 53.845C142.881 53.4065 143.095 52.8867 143.095 52.2531C143.095 51.6359 142.881 51.1161 142.47 50.6774C142.059 50.2389 141.549 50.0277 140.941 50.0277C140.333 50.0277 139.824 50.2389 139.428 50.6774C139.034 51.1161 138.82 51.6359 138.82 52.2694C138.82 52.8867 139.034 53.4065 139.445 53.845C139.856 54.2836 140.366 54.4948 140.974 54.4948Z" fill="white"/>
<path d="M146.777 55.1609V49.248H147.665V53.9263L151.217 49.248H152.088V55.1609H151.2V50.4826L147.632 55.1609H146.777Z" fill="white"/>
<path d="M154.948 55.2421C154.719 55.2421 154.471 55.2096 154.225 55.1446L154.323 54.3973C154.505 54.4461 154.636 54.4786 154.751 54.4786C154.916 54.4786 155.062 54.4624 155.162 54.4136C155.276 54.3649 155.392 54.2675 155.507 54.0888C155.638 53.91 155.738 53.6502 155.803 53.3254C155.869 53.0005 155.935 52.5293 155.984 51.9284C156.033 51.3272 156.066 50.5963 156.066 49.7354V49.248H160.308V55.1609H159.42V50.0278H156.92V50.1577C156.92 51.0511 156.888 51.8308 156.822 52.4644C156.757 53.0979 156.658 53.5852 156.56 53.9588C156.46 54.3161 156.312 54.5924 156.132 54.7873C155.952 54.9822 155.77 55.1121 155.589 55.1771C155.425 55.2096 155.211 55.2421 154.948 55.2421Z" fill="white"/>
<path d="M163.464 55.1609V49.248H164.352V53.9263L167.903 49.248H168.775V55.1609H167.887V50.4826L164.32 55.1609H163.464Z" fill="white"/>
<path d="M179.264 55.291C178.392 55.291 177.669 54.9822 177.078 54.3813C176.485 53.7801 176.19 53.0492 176.19 52.2046C176.19 51.3599 176.485 50.6288 177.078 50.0279C177.669 49.4269 178.392 49.1182 179.264 49.1182C180.184 49.1182 180.99 49.4756 181.664 50.174L181.105 50.7751C180.546 50.1903 179.938 49.8979 179.264 49.8979C178.656 49.8979 178.162 50.1254 177.735 50.5639C177.307 51.0025 177.11 51.5548 177.11 52.2046C177.11 52.838 177.324 53.3904 177.735 53.8289C178.162 54.2676 178.671 54.4949 179.296 54.4949C179.938 54.4949 180.546 54.2025 181.105 53.6016L181.696 54.1376C181.006 54.9173 180.201 55.291 179.264 55.291Z" fill="white"/>
<path d="M188.963 55.1609V49.248H194.142V55.1609H193.255V50.0278H189.851V55.1609H188.963Z" fill="white"/>
<path d="M197.299 56.9798V49.2315H198.187V50.4173C198.795 49.5401 199.551 49.1016 200.472 49.1016C201.228 49.1016 201.902 49.3777 202.477 49.9462C203.053 50.4986 203.332 51.262 203.332 52.1878C203.332 53.1138 203.053 53.8611 202.477 54.4133C201.902 54.9818 201.244 55.2581 200.472 55.2581C199.534 55.2581 198.761 54.8357 198.187 54.0072V56.9636H197.299V56.9798ZM200.324 54.4945C200.932 54.4945 201.426 54.2833 201.837 53.8772C202.231 53.455 202.445 52.9026 202.445 52.2041C202.445 51.5219 202.248 50.9696 201.837 50.5473C201.426 50.1249 200.932 49.9137 200.339 49.9137C199.765 49.9137 199.255 50.1249 198.828 50.5635C198.4 51.002 198.187 51.5544 198.187 52.2041C198.187 52.8702 198.4 53.4224 198.828 53.8448C199.239 54.2833 199.731 54.4945 200.324 54.4945Z" fill="white"/>
<path d="M211.108 54.3813C210.499 54.9822 209.76 55.291 208.872 55.291C207.985 55.291 207.245 54.9822 206.652 54.3813C206.061 53.7801 205.765 53.0492 205.765 52.2046C205.765 51.3599 206.061 50.6288 206.669 50.0279C207.262 49.4269 208.018 49.1182 208.906 49.1182C209.794 49.1182 210.533 49.4269 211.124 50.0279C211.717 50.6288 212.012 51.3599 212.012 52.2046C212.012 53.0492 211.7 53.7801 211.108 54.3813ZM208.889 54.4949C209.531 54.4949 210.056 54.2676 210.467 53.8289C210.878 53.3904 211.092 52.838 211.092 52.1883C211.092 51.5548 210.878 51.0025 210.451 50.5476C210.023 50.0928 209.497 49.8654 208.872 49.8654C208.231 49.8654 207.705 50.0928 207.294 50.5315C206.883 50.97 206.686 51.5224 206.686 52.1721C206.686 52.8055 206.9 53.3579 207.328 53.7964C207.739 54.2838 208.264 54.4949 208.889 54.4949Z" fill="white"/>
<path d="M217.586 55.2908C216.666 55.2908 215.925 54.9984 215.383 54.3974C214.823 53.7963 214.561 52.9841 214.561 51.9607C214.561 51.5871 214.561 51.2622 214.577 51.0024C214.594 50.7425 214.626 50.4501 214.677 50.1252C214.726 49.8003 214.791 49.5242 214.889 49.2967C214.988 49.0694 215.12 48.8419 215.285 48.6145C215.448 48.387 215.645 48.2084 215.91 48.0622C216.156 47.916 216.467 47.8023 216.797 47.7211L220.134 46.9414L220.315 47.6885L217.077 48.4845C216.467 48.6307 216.041 48.8743 215.777 49.2155C215.514 49.5404 215.366 50.0115 215.317 50.5962C215.827 49.7353 216.649 49.313 217.8 49.313C218.588 49.313 219.263 49.6054 219.821 50.1739C220.38 50.7425 220.66 51.441 220.66 52.2531C220.66 53.0978 220.365 53.8126 219.772 54.3974C219.181 54.9984 218.457 55.2908 217.586 55.2908ZM217.602 54.4948C218.211 54.4948 218.721 54.2836 219.115 53.845C219.509 53.4065 219.723 52.8867 219.723 52.2531C219.723 51.6359 219.509 51.1161 219.098 50.6774C218.687 50.2389 218.177 50.0277 217.569 50.0277C216.961 50.0277 216.452 50.2389 216.056 50.6774C215.662 51.1161 215.448 51.6359 215.448 52.2694C215.448 52.8867 215.662 53.4065 216.073 53.845C216.501 54.2836 217.01 54.4948 217.602 54.4948Z" fill="white"/>
<path d="M226.036 55.291C225.198 55.291 224.49 54.9985 223.916 54.43C223.34 53.8614 223.06 53.1143 223.06 52.2046C223.06 51.3436 223.34 50.6127 223.882 50.0116C224.424 49.4106 225.115 49.1182 225.937 49.1182C226.793 49.1182 227.466 49.4106 227.977 50.0116C228.485 50.6127 228.733 51.3599 228.733 52.2533C228.733 52.367 228.733 52.4645 228.716 52.5619H223.965C224.03 53.163 224.261 53.6503 224.655 53.9913C225.049 54.3488 225.526 54.5274 226.068 54.5274C226.793 54.5274 227.417 54.2513 227.96 53.6989L228.519 54.1864C227.828 54.9173 227.006 55.291 226.036 55.291ZM223.948 51.8472H227.795C227.746 51.2787 227.549 50.8076 227.22 50.4178C226.89 50.0442 226.447 49.8491 225.888 49.8491C225.378 49.8491 224.935 50.0442 224.573 50.4015C224.227 50.7913 224.013 51.2624 223.948 51.8472Z" fill="white"/>
<path d="M231.428 55.1609V49.248H235.489V50.0278H232.316V55.1609H231.428Z" fill="white"/>
<path d="M242.921 54.3803C242.313 54.9813 241.572 55.29 240.684 55.29C239.797 55.29 239.057 54.9813 238.466 54.3803C237.873 53.7792 237.578 53.0482 237.578 52.2036C237.578 51.359 237.873 50.6279 238.481 50.0269C239.074 49.4259 239.83 49.1172 240.718 49.1172C241.606 49.1172 242.345 49.4259 242.938 50.0269C243.529 50.6279 243.826 51.359 243.826 52.2036C243.809 53.0482 243.512 53.7792 242.921 54.3803ZM240.701 54.494C241.343 54.494 241.868 54.2666 242.279 53.8279C242.69 53.3894 242.904 52.837 242.904 52.1873C242.904 51.5538 242.69 51.0015 242.263 50.5466C241.836 50.0918 241.309 49.8644 240.684 49.8644C240.044 49.8644 239.517 50.0918 239.106 50.5305C238.695 50.969 238.498 51.5214 238.498 52.1711C238.498 52.8046 238.712 53.3569 239.14 53.7955C239.551 54.2828 240.076 54.494 240.701 54.494Z" fill="white"/>
<path d="M246.586 55.1609V49.248H247.425L249.662 52.3669L251.897 49.248H252.751V55.1609H251.848V50.645L249.645 53.6339L247.459 50.645V55.1446H246.586V55.1609Z" fill="white"/>
<path d="M53.7579 54.1862C53.7907 52.0095 55.1389 50.0115 57.2432 49.2643C59.364 48.517 61.7643 49.1506 63.1947 50.8725C64.5921 52.5456 64.7728 54.9821 63.6549 56.8339C62.537 58.7182 60.2682 59.7579 58.0981 59.3518C55.5662 58.8807 53.7907 56.704 53.7579 54.1862C53.7414 52.9354 51.7686 52.9354 51.7851 54.1862C51.8343 57.2076 53.7085 59.904 56.6021 60.9599C59.4627 61.9995 62.8001 61.0574 64.7071 58.7182C66.5814 56.4117 66.8608 53.1141 65.3484 50.5476C63.7865 47.916 60.6792 46.584 57.6707 47.12C54.2511 47.7373 51.8508 50.8074 51.7851 54.1862C51.7521 55.4532 53.725 55.4532 53.7579 54.1862Z" fill="white"/>
<path d="M52.7716 53.2119C48.2177 53.2119 43.6801 53.2119 39.1261 53.2119C37.8603 53.2119 37.8603 55.1611 39.1261 55.1611C43.6801 55.1611 48.2177 55.1611 52.7716 55.1611C54.0375 55.1611 54.0375 53.2119 52.7716 53.2119Z" fill="white"/>
<path d="M12.8217 54.1862C12.8545 52.0095 14.2025 50.0115 16.307 49.2643C18.4277 48.517 20.828 49.1506 22.2584 50.8725C23.6557 52.5456 23.8366 54.9821 22.7187 56.8339C21.6008 58.7182 19.332 59.7579 17.1619 59.3518C14.6465 58.8807 12.8709 56.704 12.8217 54.1862C12.8052 52.9354 10.8324 52.9354 10.8487 54.1862C10.8981 57.2076 12.7723 59.904 15.6658 60.9599C18.5264 61.9995 21.8639 61.0574 23.7709 58.7182C25.645 56.4117 25.9246 53.1141 24.412 50.5476C22.8502 47.916 19.743 46.584 16.7344 47.12C13.3149 47.7373 10.9146 50.8074 10.8487 54.1862C10.8324 55.4532 12.8052 55.4532 12.8217 54.1862Z" fill="white"/>
<path d="M11.835 53.211C10.3554 53.211 8.87586 53.211 7.41262 53.211C6.88658 53.211 6.36039 53.2271 5.83434 53.211C4.30541 53.1622 3.33537 52.0576 3.15462 50.5956C3.00657 49.3124 3.31902 47.9642 4.07517 46.9245C4.7164 46.0311 4.963 45.1702 4.963 44.0818C4.963 43.1722 4.963 42.2787 4.963 41.3691C4.963 40.7519 4.86431 39.9883 5.1109 39.4036C5.80149 37.7791 8.16891 38.364 9.5663 38.3152C10.7171 38.2664 11.4734 37.6492 12.3447 37.0157C13.1667 36.4309 13.9887 35.8461 14.8272 35.2939C16.9809 33.8644 19.2332 32.5323 21.6007 31.4928C23.1625 30.8105 24.8064 30.2744 26.5163 30.2744C29.7879 30.2744 33.076 30.2744 36.3476 30.2744C37.482 30.2744 38.6163 30.2744 39.7508 30.2744C42.5785 30.2907 45.0282 31.2329 47.3956 32.6948C48.6614 33.4745 49.8781 34.3193 51.0617 35.2126C52.344 36.1711 53.5607 37.5679 55.1883 37.9091C56.7007 38.234 58.1968 38.5264 59.7094 38.8676C63.7702 39.8097 68.1104 40.7843 71.793 42.7823C72.4342 43.1235 72.9768 43.4645 73.47 43.9519C73.6344 44.1144 73.7329 44.2605 73.7823 44.358C73.7494 44.2768 73.8481 44.5529 73.8481 44.6017C73.8151 44.3742 73.8316 44.5529 73.8316 44.6178C73.8645 46.1773 73.8316 47.7367 73.8316 49.2961C73.8316 50.8392 74.0125 52.951 71.8917 53.1784C70.4449 53.3408 68.8995 53.1784 67.4363 53.1784C66.9267 53.1784 66.4005 53.1784 65.891 53.1784C64.625 53.1784 64.625 55.1277 65.891 55.1277C67.4856 55.1277 69.0804 55.1277 70.675 55.1277C71.382 55.1277 72.1054 55.1765 72.7959 54.9653C74.2261 54.5592 75.3605 53.3896 75.6893 51.944C75.8374 51.3104 75.788 50.6607 75.788 50.0271C75.788 49.0688 75.788 48.1103 75.788 47.1519C75.788 45.9336 76.0675 44.358 75.4099 43.2534C74.555 41.824 72.763 40.9955 71.2833 40.3458C69.179 39.4198 66.9759 38.7213 64.7565 38.104C62.6029 37.503 60.4492 36.9833 58.2625 36.5121C57.5064 36.3497 56.7666 36.1873 56.0103 36.0411C54.4977 35.7487 53.3798 34.4817 52.1796 33.572C49.73 31.8014 47.0831 29.8846 44.1238 28.9749C42.3154 28.4227 40.4577 28.3252 38.5835 28.3252C34.9009 28.3252 31.2183 28.3252 27.5357 28.3252C26.1875 28.3252 24.9051 28.374 23.5899 28.7151C20.9266 29.4298 18.4113 30.778 16.0602 32.1913C14.1696 33.3283 12.3447 34.5629 10.5855 35.8624C9.13881 36.9345 7.06733 35.9761 5.40685 36.6096C3.97661 37.1619 3.05592 38.4776 2.97372 39.9883C2.94087 40.6706 2.97372 41.3853 2.97372 42.0676C2.97372 42.8635 2.99022 43.6595 2.97372 44.4554C2.95723 45.0727 2.71063 45.43 2.38183 45.9012C2.00369 46.4209 1.72424 46.9894 1.52699 47.6067C0.50766 50.5794 1.54334 54.5429 5.07805 55.0953C6.72218 55.3551 8.51407 55.1602 10.1745 55.1602C10.7336 55.1602 11.2761 55.1602 11.835 55.1602C13.1174 55.1602 13.1174 53.211 11.835 53.211Z" fill="white"/>
<path d="M15.9448 40.7853C19.6933 40.7853 23.4416 40.7853 27.1901 40.7853C33.1744 40.7853 39.1422 40.7853 45.1264 40.7853C46.5075 40.7853 47.8885 40.7853 49.2695 40.7853C50.5354 40.7853 50.5354 38.8359 49.2695 38.8359C45.5211 38.8359 41.7726 38.8359 38.0243 38.8359C32.04 38.8359 26.0721 38.8359 20.0878 38.8359C18.7069 38.8359 17.3259 38.8359 15.9448 38.8359C14.679 38.8359 14.6625 40.7853 15.9448 40.7853Z" fill="white"/>
<path d="M27.8481 55.1602C28.4728 55.1602 29.0811 55.1602 29.7058 55.1602C30.3306 55.1602 31.1197 55.0465 31.728 55.2414C32.402 55.4689 32.9774 56.2486 33.4543 56.7196C35.6902 58.9612 37.9095 61.203 40.1454 63.4446C41.8389 65.134 43.6308 66.7747 45.2256 68.5615C46.0312 69.4548 45.7516 70.3808 44.979 71.128C44.124 71.9727 43.2691 72.8174 42.4143 73.6621C40.1619 75.8874 37.8932 78.1292 35.6408 80.3545C34.8845 81.1018 34.0297 82.0764 32.8624 81.313C32.3198 80.9718 31.876 80.387 31.4321 79.9485C29.1469 77.6905 26.8617 75.4326 24.5765 73.1747C23.0147 71.6316 21.3212 70.1533 19.8581 68.5127C19.2169 67.7817 19.3813 66.7259 19.3813 65.8325C19.3813 64.2406 19.3813 62.6649 19.3813 61.073C19.3813 59.4648 19.3813 57.873 19.3813 56.2648C19.3813 55.8262 19.4306 55.3389 19.3813 54.9004C19.3649 54.8192 19.4141 54.6892 19.3813 54.6241C19.2662 54.3805 18.5921 55.0628 18.8552 55.1765C18.9703 55.2252 19.2334 55.1765 19.3484 55.1765C19.9897 55.1765 20.6308 55.1765 21.272 55.1765C22.5378 55.1765 22.5378 53.2271 21.272 53.2271C19.9567 53.2271 17.54 52.7561 17.392 54.6404C17.3098 55.6638 17.392 56.7359 17.392 57.7593C17.392 60.8943 17.3592 64.0131 17.392 67.1483C17.4085 68.3503 17.8523 69.3087 18.6908 70.1533C19.5128 70.9655 20.3185 71.7615 21.1405 72.5737C23.7051 75.1077 26.2533 77.6256 28.8181 80.1596C29.5579 80.8906 30.2977 81.6379 31.054 82.3688C32.5336 83.7983 34.7038 83.9119 36.2327 82.4988C38.1726 80.7282 39.9647 78.8114 41.8389 76.9596C43.039 75.7738 44.2392 74.588 45.4393 73.4022C46.1791 72.6712 47.0669 71.9564 47.4449 70.9494C48.5137 68.1554 45.3571 65.9462 43.6308 64.208C41.1154 61.674 38.6001 59.14 36.0683 56.6222C35.3285 55.8911 34.6051 55.1277 33.8653 54.3968C32.698 53.2434 31.3499 53.211 29.8209 53.211C29.1469 53.211 28.4728 53.211 27.8152 53.211C26.5822 53.211 26.5658 55.1602 27.8481 55.1602Z" fill="#D80000"/>
<path d="M33.4869 73.874L26.1546 66.9541C25.7764 66.5968 25.7599 65.9957 26.1217 65.6222L28.4561 63.218C29.344 62.3083 30.2647 61.8048 31.2511 61.7073C32.2374 61.6098 33.1253 61.9348 33.9144 62.6819C34.4733 63.2018 34.8186 63.8028 34.9502 64.4688C35.0817 65.1347 35.0159 65.7846 34.7528 66.4344C34.4898 67.0841 34.0788 67.7014 33.5198 68.2862L32.3525 69.4882C32.1552 69.683 32.1717 69.9918 32.369 70.1867L34.8021 72.4933C35.1803 72.8507 35.1968 73.4516 34.835 73.8253L34.8186 73.8416C34.4733 74.2152 33.8651 74.2314 33.4869 73.874ZM30.4291 68.3674C30.6263 68.5623 30.9386 68.546 31.136 68.3511L32.3361 67.1165C32.8293 66.5968 33.0923 66.0769 33.1416 65.5247C33.1746 64.9723 32.9937 64.5176 32.5827 64.1114C32.1388 63.6891 31.6621 63.5267 31.136 63.6079C30.6098 63.6891 30.1003 63.9815 29.5906 64.5176L28.3904 65.752C28.1932 65.9471 28.2095 66.2556 28.4068 66.4505L30.4291 68.3674Z" fill="#D80000"/>
<path d="M30.6921 74.2637C30.314 73.9063 30.2976 73.3053 30.6593 72.9317L33.8158 69.6667C34.1775 69.293 34.7859 69.2767 35.1639 69.6342C35.542 69.9915 35.5585 70.5925 35.1968 70.9661L32.0403 74.2311C31.6786 74.6048 31.0703 74.6211 30.6921 74.2637Z" fill="#D80000"/>
<path d="M149.868 28.7969H154.143C154.455 28.7969 154.719 29.0567 154.719 29.3654V32.3055C154.719 32.5004 154.982 32.5816 155.096 32.4192L157.628 29.0242C157.743 28.8781 157.908 28.7969 158.088 28.7969H162.494C162.971 28.7969 163.234 29.3491 162.954 29.7064L159.306 34.3198C159.157 34.4984 159.141 34.7583 159.272 34.9695L163.382 41.7107C163.613 42.0843 163.333 42.5716 162.888 42.5716H158.154C157.941 42.5716 157.743 42.458 157.645 42.2794L155.524 38.4457C155.474 38.3483 155.327 38.332 155.244 38.4133L154.866 38.8518C154.785 38.9493 154.734 39.0793 154.734 39.2254V42.0031C154.734 42.3118 154.471 42.5716 154.16 42.5716H149.885C149.573 42.5716 149.309 42.3118 149.309 42.0031V29.3654C149.293 29.0405 149.539 28.7969 149.868 28.7969Z" fill="#D80000"/>
<path d="M94.8262 42.8476C92.771 42.8476 91.1928 42.4902 90.0913 41.7917C89.1871 41.2232 88.5952 40.3623 88.2993 39.2089C88.2007 38.8029 88.4965 38.4131 88.924 38.4131H93.1163C93.3629 38.4131 93.5767 38.5592 93.6917 38.7704C93.7411 38.8679 93.8233 38.9491 93.9055 39.014C94.0864 39.144 94.3987 39.2089 94.8262 39.2089C95.3029 39.2089 95.6317 39.1602 95.8126 39.0628C95.9935 38.9653 96.0757 38.8029 96.0757 38.608C96.0757 38.4943 96.0427 38.3968 95.977 38.3155C95.9112 38.2343 95.7797 38.1531 95.5825 38.0719C95.3851 37.9907 95.1056 37.9095 94.744 37.8282C94.3823 37.747 93.9055 37.6333 93.2972 37.5197C92.6066 37.3897 91.9819 37.211 91.4065 36.9998C90.8311 36.7886 90.3379 36.4962 89.9104 36.1388C89.4831 35.7815 89.1543 35.343 88.924 34.8231C88.6939 34.3033 88.5787 33.686 88.5787 32.9875C88.5787 32.2241 88.7268 31.5581 89.0391 30.9896C89.335 30.421 89.7625 29.9499 90.3214 29.5763C90.8805 29.2026 91.5381 28.9265 92.3107 28.7479C93.0835 28.5692 93.922 28.4717 94.859 28.4717C96.8154 28.4717 98.3279 28.8453 99.3636 29.6089C100.169 30.1935 100.728 30.9571 101.041 31.8829C101.172 32.289 100.86 32.7114 100.432 32.7114H96.2729C96.0592 32.7114 95.8291 32.6139 95.7139 32.4353C95.681 32.3702 95.6153 32.3215 95.566 32.2729C95.4181 32.1591 95.1878 32.1104 94.8755 32.1104C94.3165 32.1104 94.037 32.3215 94.037 32.7276C94.037 32.8414 94.0699 32.9551 94.1521 33.0363C94.2343 33.1338 94.3493 33.215 94.5302 33.2799C94.7111 33.3449 94.9577 33.4261 95.2535 33.4911C95.566 33.556 95.9441 33.6211 96.4208 33.7023C97.0292 33.7997 97.6374 33.946 98.2457 34.1246C98.8541 34.3033 99.413 34.547 99.9062 34.8881C100.399 35.213 100.794 35.6352 101.106 36.1551C101.419 36.6749 101.567 37.3246 101.567 38.1207C101.567 38.9328 101.402 39.6313 101.09 40.2323C100.778 40.8334 100.334 41.3207 99.7418 41.7105C99.1664 42.1004 98.4594 42.3929 97.6374 42.5714C96.7661 42.7502 95.8454 42.8476 94.8262 42.8476Z" fill="#D80000"/>
<path d="M106.104 28.7803H110.247C110.609 28.7803 110.888 29.0727 110.888 29.4137V33.0849C110.888 33.3123 111.069 33.491 111.299 33.491H113.617C113.847 33.491 114.028 33.3123 114.028 33.0849V29.4137C114.028 29.0564 114.324 28.7803 114.669 28.7803H118.812C119.174 28.7803 119.454 29.0727 119.454 29.4137V41.9216C119.454 42.2789 119.158 42.555 118.812 42.555H114.653C114.291 42.555 114.012 42.2628 114.012 41.9216V38.0555C114.012 37.8281 113.831 37.6494 113.601 37.6494H111.283C111.053 37.6494 110.872 37.8281 110.872 38.0555V41.9216C110.872 42.2789 110.576 42.555 110.231 42.555H106.104C105.742 42.555 105.463 42.2628 105.463 41.9216V29.4137C105.463 29.0564 105.742 28.7803 106.104 28.7803Z" fill="#D80000"/>
<path d="M124.649 28.7803H134.678C135.038 28.7803 135.318 29.0727 135.318 29.4137V31.9153C135.318 32.2726 135.023 32.5489 134.678 32.5489H129.729C129.564 32.5489 129.432 32.6788 129.432 32.8413V33.6859C129.432 33.8483 129.564 33.9783 129.729 33.9783H134.612C134.973 33.9783 135.252 34.2707 135.252 34.6118V36.5287C135.252 36.886 134.957 37.1621 134.612 37.1621H129.729C129.564 37.1621 129.432 37.2921 129.432 37.4545V38.4942C129.432 38.6566 129.564 38.7864 129.729 38.7864H134.678C135.038 38.7864 135.318 39.0788 135.318 39.42V41.9216C135.318 42.2789 135.023 42.555 134.678 42.555H124.649C124.287 42.555 124.007 42.2628 124.007 41.9216V29.4137C124.007 29.0564 124.303 28.7803 124.649 28.7803Z" fill="#D80000"/>
<path d="M140.332 28.7803H144.476C144.838 28.7803 145.116 29.0727 145.116 29.4137V41.9216C145.116 42.2789 144.821 42.555 144.476 42.555H140.332C139.97 42.555 139.692 42.2628 139.692 41.9216V29.4137C139.675 29.0564 139.97 28.7803 140.332 28.7803Z" fill="#D80000"/>
<path d="M167.837 28.7803H171.981C172.343 28.7803 172.622 29.0727 172.622 29.4137V33.2311C172.622 33.361 172.737 33.4747 172.868 33.4747H175.499C175.631 33.4747 175.745 33.361 175.745 33.2311V29.4137C175.745 29.0564 176.042 28.7803 176.387 28.7803H180.529C180.891 28.7803 181.171 29.0727 181.171 29.4137V41.9216C181.171 42.2789 180.874 42.555 180.529 42.555H176.387C176.025 42.555 175.745 42.2628 175.745 41.9216V37.9093C175.745 37.7794 175.631 37.6657 175.499 37.6657H172.868C172.737 37.6657 172.622 37.7794 172.622 37.9093V41.9216C172.622 42.2789 172.326 42.555 171.981 42.555H167.837C167.476 42.555 167.197 42.2628 167.197 41.9216V29.4137C167.197 29.0564 167.492 28.7803 167.837 28.7803Z" fill="#D80000"/>
<path d="M193.945 40.704H190.788C190.607 40.704 190.46 40.8177 190.41 40.9801L190.098 42.0847C190.015 42.3608 189.769 42.5558 189.473 42.5558H185.872C185.429 42.5558 185.116 42.1172 185.264 41.6949L189.901 29.187C189.999 28.9434 190.229 28.7646 190.509 28.7646H195.03C195.293 28.7646 195.539 28.9271 195.638 29.187L200.274 41.6949C200.422 42.1172 200.11 42.5558 199.665 42.5558H195.244C194.947 42.5558 194.701 42.3608 194.619 42.0847L194.306 40.9801C194.274 40.8177 194.125 40.704 193.945 40.704ZM191.708 37.3578H193.007C193.238 37.3578 193.403 37.1466 193.352 36.9354L192.695 34.1251C192.613 33.7841 192.136 33.7841 192.054 34.1251L191.38 36.9354C191.314 37.1628 191.479 37.3578 191.708 37.3578Z" fill="white"/>
<path d="M204.385 29.4137C204.385 29.0564 204.68 28.7803 205.026 28.7803H212.703C214.332 28.7803 215.548 29.0727 216.336 29.6737C217.126 30.2585 217.537 31.2006 217.537 32.4677C217.537 33.1823 217.355 33.7834 216.995 34.2869C216.863 34.4656 216.715 34.6281 216.567 34.758C216.238 35.0504 216.271 35.5865 216.666 35.7976C217.669 36.3499 218.162 37.3084 218.162 38.6566C218.162 39.9398 217.734 40.9144 216.879 41.5643C216.025 42.214 214.627 42.555 212.688 42.555H205.026C204.663 42.555 204.385 42.2628 204.385 41.9216V29.4137ZM210.731 34.2707C211.29 34.2707 211.701 34.1732 211.947 33.9945C212.21 33.8159 212.326 33.5235 212.326 33.1011C212.326 32.695 212.194 32.4026 211.947 32.224C211.684 32.0453 211.306 31.964 210.779 31.964H209.86C209.695 31.964 209.563 32.094 209.563 32.2565V33.962C209.563 34.1245 209.695 34.2544 209.86 34.2544H210.731V34.2707ZM211.01 39.3388C211.75 39.3388 212.275 39.2413 212.555 39.0627C212.834 38.884 212.966 38.5591 212.966 38.1042C212.966 37.6657 212.819 37.357 212.539 37.1621C212.26 36.9834 211.733 36.886 210.961 36.886H209.86C209.695 36.886 209.58 37.016 209.58 37.1621V39.0464C209.58 39.2088 209.711 39.3225 209.86 39.3225H211.01V39.3388Z" fill="white"/>
<path d="M224.82 32.955H222.337C221.975 32.955 221.696 32.6625 221.696 32.3214V29.4137C221.696 29.0564 221.992 28.7803 222.337 28.7803H234.01C234.371 28.7803 234.651 29.0727 234.651 29.4137V32.3214C234.651 32.6788 234.356 32.955 234.01 32.955H231.528C231.165 32.955 230.886 33.2474 230.886 33.5884V41.9216C230.886 42.2789 230.591 42.555 230.246 42.555H226.102C225.74 42.555 225.46 42.2628 225.46 41.9216V33.5884C225.46 33.2311 225.166 32.955 224.82 32.955Z" fill="white"/>
<path d="M245.387 42.8473C244.368 42.8473 243.414 42.7174 242.526 42.4412C241.622 42.1651 240.849 41.7427 240.175 41.1742C239.501 40.6057 238.974 39.8747 238.58 38.9814C238.186 38.088 237.989 37.0158 237.989 35.7813V35.3752C237.989 34.1894 238.186 33.1822 238.58 32.3213C238.974 31.4603 239.501 30.7457 240.175 30.1772C240.849 29.6085 241.637 29.1862 242.526 28.9101C243.43 28.6339 244.383 28.5039 245.387 28.5039C246.406 28.5039 247.359 28.6339 248.247 28.9101C249.151 29.1862 249.924 29.6085 250.598 30.1772C251.272 30.7457 251.798 31.4603 252.193 32.3213C252.588 33.1822 252.785 34.2056 252.785 35.3752V35.765C252.785 36.9832 252.588 38.0392 252.193 38.9326C251.798 39.826 251.272 40.5569 250.598 41.1418C249.924 41.7266 249.135 42.1488 248.247 42.4251C247.359 42.7012 246.406 42.8473 245.387 42.8473ZM245.387 38.6402C245.961 38.6402 246.423 38.4128 246.751 37.9741C247.08 37.5356 247.245 36.8046 247.245 35.765V35.3752C247.245 34.433 247.08 33.7507 246.751 33.3285C246.423 32.9061 245.961 32.6949 245.387 32.6949C244.811 32.6949 244.351 32.9061 244.022 33.3285C243.694 33.7507 243.529 34.433 243.529 35.3752V35.765C243.529 36.8046 243.694 37.5356 244.022 37.9741C244.351 38.4128 244.811 38.6402 245.387 38.6402Z" fill="white"/>
</svg>
