<svg width="254" height="84" viewBox="0 0 254 84" fill="none" xmlns="http://www.w3.org/2000/svg">
<g id="logo 1">
<path id="Vector" d="M90.5845 55.2744C89.9763 55.2744 89.4501 55.1119 89.0062 54.7871C88.5624 54.4622 88.3486 54.0073 88.3486 53.4225C88.3486 52.8052 88.5787 52.3342 89.0391 51.9931C89.4994 51.652 90.1242 51.4896 90.897 51.4896C91.5216 51.4896 92.1299 51.5708 92.7217 51.7333V51.5545C92.7217 51.0348 92.5738 50.6448 92.2615 50.3687C91.949 50.0926 91.5216 49.9626 90.9462 49.9626C90.3544 49.9626 89.746 50.1088 89.1213 50.385L88.8583 49.6702C89.5981 49.3291 90.3214 49.1666 91.0284 49.1666C91.8833 49.1666 92.5244 49.3778 92.9684 49.8164C93.3794 50.2224 93.5932 50.8073 93.5932 51.5545V55.1607H92.7053V54.2835C92.1956 54.9495 91.4887 55.2744 90.5845 55.2744ZM90.7489 54.5759C91.308 54.5759 91.7683 54.4297 92.1628 54.1373C92.5409 53.8449 92.7382 53.4551 92.7382 53.0003V52.4318C92.1463 52.2692 91.5709 52.188 90.9955 52.188C90.453 52.188 90.0256 52.3018 89.7132 52.513C89.4009 52.724 89.2528 53.0327 89.2528 53.4064C89.2528 53.7637 89.4009 54.0561 89.6803 54.2673C89.9763 54.4622 90.3379 54.5759 90.7489 54.5759Z" fill="#3A3A3A"/>
<path id="Vector_2" d="M96.667 55.1606V49.2478H99.5606C100.152 49.2478 100.629 49.3778 100.991 49.6539C101.352 49.9138 101.517 50.2712 101.517 50.726C101.517 51.3596 101.188 51.8144 100.514 52.0905C101.402 52.3342 101.829 52.8215 101.829 53.5525C101.829 54.0561 101.632 54.4458 101.237 54.7383C100.843 55.0307 100.317 55.1769 99.6592 55.1769H96.667V55.1606ZM97.5548 51.782H99.3962C99.7742 51.782 100.054 51.7006 100.284 51.5382C100.498 51.3758 100.613 51.1321 100.613 50.8398C100.613 50.596 100.514 50.385 100.3 50.2387C100.087 50.0926 99.7907 50.0114 99.4126 50.0114H97.5548V51.782ZM97.5548 54.3972H99.5441C99.9716 54.3972 100.3 54.316 100.547 54.1373C100.794 53.9585 100.925 53.7149 100.925 53.4063C100.925 53.1139 100.794 52.8866 100.531 52.724C100.267 52.5616 99.9058 52.4803 99.4291 52.4803H97.5548V54.3972Z" fill="#3A3A3A"/>
<path id="Vector_3" d="M106.055 55.1606V50.0275H103.917V49.2478H109.096V50.0275H106.959V55.1606H106.055Z" fill="#3A3A3A"/>
<path id="Vector_4" d="M116.511 54.3809C115.902 54.9819 115.162 55.2906 114.275 55.2906C113.387 55.2906 112.647 54.9819 112.055 54.3809C111.463 53.7799 111.167 53.049 111.167 52.2042C111.167 51.3596 111.463 50.6286 112.072 50.0275C112.664 49.4265 113.42 49.1178 114.308 49.1178C115.195 49.1178 115.935 49.4265 116.527 50.0275C117.119 50.6286 117.415 51.3596 117.415 52.2042C117.415 53.049 117.119 53.7799 116.511 54.3809ZM114.308 54.4946C114.949 54.4946 115.475 54.2672 115.886 53.8285C116.297 53.39 116.511 52.8378 116.511 52.188C116.511 51.5545 116.297 51.0022 115.869 50.5474C115.442 50.0925 114.916 49.865 114.291 49.865C113.65 49.865 113.124 50.0925 112.713 50.5311C112.302 50.9696 112.105 51.522 112.105 52.1717C112.105 52.8053 112.318 53.3575 112.746 53.7961C113.157 54.2834 113.683 54.4946 114.308 54.4946Z" fill="#3A3A3A"/>
<path id="Vector_5" d="M120.177 55.1606V49.2478H121.015L123.251 52.3667L125.487 49.2478H126.342V55.1606H125.438V50.6448L123.235 53.6337L121.048 50.6448V55.1443H120.177V55.1606Z" fill="#3A3A3A"/>
<path id="Vector_6" d="M134.464 54.3809C133.856 54.9819 133.115 55.2906 132.227 55.2906C131.34 55.2906 130.6 54.9819 130.009 54.3809C129.416 53.7798 129.121 53.0488 129.121 52.2042C129.121 51.3596 129.416 50.6285 130.024 50.0275C130.617 49.4265 131.373 49.1178 132.261 49.1178C133.149 49.1178 133.888 49.4265 134.481 50.0275C135.072 50.6285 135.369 51.3596 135.369 52.2042C135.369 53.0488 135.072 53.7798 134.464 54.3809ZM132.261 54.4946C132.903 54.4946 133.428 54.2672 133.839 53.8285C134.25 53.39 134.464 52.8376 134.464 52.1879C134.464 51.5545 134.25 51.0021 133.822 50.5473C133.395 50.0924 132.869 49.865 132.244 49.865C131.602 49.865 131.077 50.0924 130.666 50.5311C130.255 50.9696 130.058 51.522 130.058 52.1717C130.058 52.8052 130.272 53.3575 130.699 53.7961C131.11 54.2834 131.636 54.4946 132.261 54.4946Z" fill="#3A3A3A"/>
<path id="Vector_7" d="M140.941 55.2906C140.021 55.2906 139.281 54.9982 138.738 54.3973C138.18 53.7961 137.916 52.984 137.916 51.9606C137.916 51.587 137.916 51.2621 137.932 51.0023C137.949 50.7423 137.981 50.4499 138.032 50.1251C138.08 49.8002 138.146 49.5241 138.245 49.2966C138.343 49.0692 138.475 48.8417 138.64 48.6144C138.805 48.3869 139.002 48.2083 139.265 48.062C139.511 47.9159 139.824 47.8022 140.152 47.721L143.489 46.9413L143.671 47.6884L140.432 48.4844C139.824 48.6306 139.396 48.8742 139.133 49.2154C138.87 49.5402 138.722 50.0114 138.672 50.5961C139.182 49.7351 140.004 49.3129 141.155 49.3129C141.944 49.3129 142.618 49.6053 143.177 50.1738C143.737 50.7423 144.016 51.4408 144.016 52.253C144.016 53.0976 143.72 53.8124 143.127 54.3973C142.553 54.9982 141.813 55.2906 140.941 55.2906ZM140.974 54.4946C141.582 54.4946 142.093 54.2834 142.487 53.8449C142.881 53.4064 143.095 52.8866 143.095 52.253C143.095 51.6357 142.881 51.116 142.47 50.6773C142.059 50.2387 141.549 50.0275 140.941 50.0275C140.333 50.0275 139.824 50.2387 139.428 50.6773C139.034 51.116 138.82 51.6357 138.82 52.2693C138.82 52.8866 139.034 53.4064 139.445 53.8449C139.856 54.2834 140.366 54.4946 140.974 54.4946Z" fill="#3A3A3A"/>
<path id="Vector_8" d="M146.777 55.1606V49.2478H147.665V53.9261L151.217 49.2478H152.088V55.1606H151.2V50.4824L147.632 55.1606H146.777Z" fill="#3A3A3A"/>
<path id="Vector_9" d="M154.948 55.2419C154.719 55.2419 154.471 55.2094 154.225 55.1443L154.323 54.3971C154.505 54.4458 154.636 54.4783 154.751 54.4783C154.916 54.4783 155.062 54.4621 155.162 54.4134C155.276 54.3646 155.392 54.2673 155.507 54.0885C155.638 53.9098 155.738 53.65 155.803 53.3251C155.869 53.0002 155.935 52.5291 155.984 51.9281C156.033 51.327 156.066 50.596 156.066 49.7351V49.2478H160.308V55.1606H159.42V50.0275H156.92V50.1575C156.92 51.0509 156.888 51.8306 156.822 52.4642C156.757 53.0976 156.658 53.5849 156.56 53.9585C156.46 54.3159 156.312 54.5921 156.132 54.787C155.952 54.9819 155.77 55.1119 155.589 55.1768C155.425 55.2094 155.211 55.2419 154.948 55.2419Z" fill="#3A3A3A"/>
<path id="Vector_10" d="M163.464 55.1606V49.2478H164.352V53.9261L167.903 49.2478H168.775V55.1606H167.887V50.4824L164.32 55.1606H163.464Z" fill="#3A3A3A"/>
<path id="Vector_11" d="M179.264 55.2906C178.392 55.2906 177.669 54.9819 177.078 54.3809C176.485 53.7798 176.19 53.0488 176.19 52.2042C176.19 51.3596 176.485 50.6285 177.078 50.0275C177.669 49.4265 178.392 49.1178 179.264 49.1178C180.184 49.1178 180.99 49.4753 181.664 50.1736L181.105 50.7747C180.546 50.1899 179.938 49.8975 179.264 49.8975C178.656 49.8975 178.162 50.125 177.735 50.5635C177.307 51.0021 177.11 51.5545 177.11 52.2042C177.11 52.8376 177.324 53.39 177.735 53.8285C178.162 54.2672 178.671 54.4946 179.296 54.4946C179.938 54.4946 180.546 54.2022 181.105 53.6012L181.696 54.1372C181.006 54.917 180.201 55.2906 179.264 55.2906Z" fill="#3A3A3A"/>
<path id="Vector_12" d="M188.963 55.1606V49.2478H194.142V55.1606H193.255V50.0275H189.851V55.1606H188.963Z" fill="#3A3A3A"/>
<path id="Vector_13" d="M197.299 56.9799V49.2317H198.187V50.4175C198.795 49.5402 199.551 49.1017 200.472 49.1017C201.228 49.1017 201.902 49.3778 202.477 49.9463C203.053 50.4987 203.332 51.2621 203.332 52.1879C203.332 53.1139 203.053 53.8612 202.477 54.4134C201.902 54.9819 201.244 55.2582 200.472 55.2582C199.534 55.2582 198.761 54.8358 198.187 54.0073V56.9637H197.299V56.9799ZM200.324 54.4946C200.932 54.4946 201.426 54.2834 201.837 53.8773C202.231 53.4551 202.445 52.9027 202.445 52.2042C202.445 51.522 202.248 50.9697 201.837 50.5474C201.426 50.125 200.932 49.9139 200.339 49.9139C199.765 49.9139 199.255 50.125 198.828 50.5636C198.4 51.0021 198.187 51.5545 198.187 52.2042C198.187 52.8703 198.4 53.4225 198.828 53.8449C199.239 54.2834 199.731 54.4946 200.324 54.4946Z" fill="#3A3A3A"/>
<path id="Vector_14" d="M211.108 54.3809C210.499 54.9819 209.76 55.2906 208.872 55.2906C207.985 55.2906 207.245 54.9819 206.652 54.3809C206.061 53.7798 205.765 53.0488 205.765 52.2042C205.765 51.3596 206.061 50.6285 206.669 50.0275C207.262 49.4265 208.018 49.1178 208.906 49.1178C209.794 49.1178 210.533 49.4265 211.124 50.0275C211.717 50.6285 212.012 51.3596 212.012 52.2042C212.012 53.0488 211.7 53.7798 211.108 54.3809ZM208.889 54.4946C209.531 54.4946 210.056 54.2672 210.467 53.8285C210.878 53.39 211.092 52.8376 211.092 52.1879C211.092 51.5545 210.878 51.0021 210.451 50.5473C210.023 50.0924 209.497 49.865 208.872 49.865C208.231 49.865 207.705 50.0924 207.294 50.5311C206.883 50.9696 206.686 51.522 206.686 52.1717C206.686 52.8052 206.9 53.3575 207.328 53.7961C207.739 54.2834 208.264 54.4946 208.889 54.4946Z" fill="#3A3A3A"/>
<path id="Vector_15" d="M217.586 55.2906C216.666 55.2906 215.925 54.9982 215.383 54.3973C214.823 53.7961 214.561 52.984 214.561 51.9606C214.561 51.587 214.561 51.2621 214.577 51.0023C214.594 50.7423 214.626 50.4499 214.677 50.1251C214.726 49.8002 214.791 49.5241 214.889 49.2966C214.988 49.0692 215.12 48.8417 215.285 48.6144C215.448 48.3869 215.645 48.2083 215.91 48.062C216.156 47.9159 216.467 47.8022 216.797 47.721L220.134 46.9413L220.315 47.6884L217.077 48.4844C216.467 48.6306 216.041 48.8742 215.777 49.2154C215.514 49.5402 215.366 50.0114 215.317 50.5961C215.827 49.7351 216.649 49.3129 217.8 49.3129C218.588 49.3129 219.263 49.6053 219.821 50.1738C220.38 50.7423 220.66 51.4408 220.66 52.253C220.66 53.0976 220.365 53.8124 219.772 54.3973C219.181 54.9982 218.457 55.2906 217.586 55.2906ZM217.602 54.4946C218.211 54.4946 218.721 54.2834 219.115 53.8449C219.509 53.4064 219.723 52.8866 219.723 52.253C219.723 51.6357 219.509 51.116 219.098 50.6773C218.687 50.2387 218.177 50.0275 217.569 50.0275C216.961 50.0275 216.452 50.2387 216.056 50.6773C215.662 51.116 215.448 51.6357 215.448 52.2693C215.448 52.8866 215.662 53.4064 216.073 53.8449C216.501 54.2834 217.01 54.4946 217.602 54.4946Z" fill="#3A3A3A"/>
<path id="Vector_16" d="M226.036 55.2906C225.198 55.2906 224.49 54.9982 223.916 54.4297C223.34 53.861 223.06 53.1139 223.06 52.2042C223.06 51.3433 223.34 50.6123 223.882 50.0112C224.424 49.4102 225.115 49.1178 225.937 49.1178C226.793 49.1178 227.466 49.4102 227.977 50.0112C228.485 50.6123 228.733 51.3596 228.733 52.253C228.733 52.3666 228.733 52.4641 228.716 52.5615H223.965C224.03 53.1626 224.261 53.6499 224.655 53.991C225.049 54.3484 225.526 54.527 226.068 54.527C226.793 54.527 227.417 54.2509 227.96 53.6986L228.519 54.186C227.828 54.917 227.006 55.2906 226.036 55.2906ZM223.948 51.8469H227.795C227.746 51.2783 227.549 50.8072 227.22 50.4174C226.89 50.0438 226.447 49.8488 225.888 49.8488C225.378 49.8488 224.935 50.0438 224.573 50.4011C224.227 50.7909 224.013 51.262 223.948 51.8469Z" fill="#3A3A3A"/>
<path id="Vector_17" d="M231.428 55.1606V49.2478H235.489V50.0275H232.316V55.1606H231.428Z" fill="#3A3A3A"/>
<path id="Vector_18" d="M242.921 54.3808C242.313 54.9818 241.572 55.2905 240.684 55.2905C239.797 55.2905 239.057 54.9818 238.466 54.3808C237.873 53.7797 237.578 53.0487 237.578 52.2041C237.578 51.3594 237.873 50.6283 238.481 50.0274C239.074 49.4264 239.83 49.1177 240.718 49.1177C241.606 49.1177 242.345 49.4264 242.938 50.0274C243.529 50.6283 243.826 51.3594 243.826 52.2041C243.809 53.0487 243.512 53.7797 242.921 54.3808ZM240.701 54.4945C241.343 54.4945 241.868 54.2671 242.279 53.8284C242.69 53.3899 242.904 52.8375 242.904 52.1878C242.904 51.5543 242.69 51.002 242.263 50.5471C241.836 50.0923 241.309 49.8649 240.684 49.8649C240.044 49.8649 239.517 50.0923 239.106 50.531C238.695 50.9695 238.498 51.5219 238.498 52.1716C238.498 52.8051 238.712 53.3574 239.14 53.796C239.551 54.2833 240.076 54.4945 240.701 54.4945Z" fill="#3A3A3A"/>
<path id="Vector_19" d="M246.586 55.1606V49.2478H247.425L249.662 52.3667L251.897 49.2478H252.751V55.1606H251.848V50.6448L249.645 53.6337L247.459 50.6448V55.1443H246.586V55.1606Z" fill="#3A3A3A"/>
<path id="Vector_20" d="M53.7579 54.1861C53.7907 52.0094 55.1389 50.0114 57.2432 49.2642C59.364 48.5169 61.7643 49.1505 63.1947 50.8723C64.5921 52.5455 64.7728 54.982 63.6549 56.8338C62.537 58.7181 60.2682 59.7578 58.0981 59.3517C55.5662 58.8805 53.7907 56.7038 53.7579 54.1861C53.7414 52.9352 51.7686 52.9352 51.7851 54.1861C51.8343 57.2074 53.7085 59.9039 56.6021 60.9597C59.4627 61.9994 62.8001 61.0573 64.7071 58.7181C66.5814 56.4116 66.8608 53.114 65.3484 50.5475C63.7865 47.9159 60.6792 46.5838 57.6707 47.1199C54.2511 47.7372 51.8508 50.8073 51.7851 54.1861C51.7521 55.4531 53.725 55.4531 53.7579 54.1861Z" fill="#3A3A3A"/>
<path id="Vector_21" d="M52.7716 53.2114C48.2177 53.2114 43.6801 53.2114 39.1261 53.2114C37.8603 53.2114 37.8603 55.1606 39.1261 55.1606C43.6801 55.1606 48.2177 55.1606 52.7716 55.1606C54.0375 55.1606 54.0375 53.2114 52.7716 53.2114Z" fill="#3A3A3A"/>
<path id="Vector_22" d="M12.8217 54.1861C12.8545 52.0094 14.2025 50.0114 16.307 49.2642C18.4277 48.5169 20.828 49.1505 22.2584 50.8723C23.6557 52.5455 23.8366 54.982 22.7187 56.8338C21.6008 58.7181 19.332 59.7578 17.1619 59.3517C14.6465 58.8805 12.8709 56.7038 12.8217 54.1861C12.8052 52.9352 10.8324 52.9352 10.8487 54.1861C10.8981 57.2074 12.7723 59.9039 15.6658 60.9597C18.5264 61.9994 21.8639 61.0573 23.7709 58.7181C25.645 56.4116 25.9246 53.114 24.412 50.5475C22.8502 47.9159 19.743 46.5838 16.7344 47.1199C13.3149 47.7372 10.9146 50.8073 10.8487 54.1861C10.8324 55.4531 12.8052 55.4531 12.8217 54.1861Z" fill="#3A3A3A"/>
<path id="Vector_23" d="M11.835 53.2115C10.3554 53.2115 8.87586 53.2115 7.41262 53.2115C6.88658 53.2115 6.36039 53.2276 5.83434 53.2115C4.30541 53.1627 3.33537 52.0581 3.15462 50.5961C3.00657 49.3129 3.31902 47.9647 4.07517 46.925C4.7164 46.0316 4.963 45.1707 4.963 44.0823C4.963 43.1727 4.963 42.2792 4.963 41.3696C4.963 40.7523 4.86431 39.9888 5.1109 39.4041C5.80149 37.7796 8.16891 38.3644 9.5663 38.3157C10.7171 38.2669 11.4734 37.6497 12.3447 37.0162C13.1667 36.4314 13.9887 35.8466 14.8272 35.2944C16.9809 33.8649 19.2332 32.5328 21.6007 31.4933C23.1625 30.811 24.8064 30.2749 26.5163 30.2749C29.7879 30.2749 33.076 30.2749 36.3476 30.2749C37.482 30.2749 38.6163 30.2749 39.7508 30.2749C42.5785 30.2912 45.0282 31.2333 47.3956 32.6953C48.6614 33.475 49.8781 34.3197 51.0617 35.2131C52.344 36.1716 53.5607 37.5684 55.1883 37.9096C56.7007 38.2345 58.1968 38.5269 59.7094 38.8681C63.7702 39.8102 68.1104 40.7848 71.793 42.7828C72.4342 43.1239 72.9768 43.465 73.47 43.9524C73.6344 44.1149 73.7329 44.261 73.7823 44.3585C73.7494 44.2773 73.8481 44.5534 73.8481 44.6022C73.8151 44.3747 73.8316 44.5534 73.8316 44.6183C73.8645 46.1777 73.8316 47.7372 73.8316 49.2966C73.8316 50.8397 74.0125 52.9515 71.8917 53.1789C70.4449 53.3413 68.8995 53.1789 67.4363 53.1789C66.9267 53.1789 66.4005 53.1789 65.891 53.1789C64.625 53.1789 64.625 55.1282 65.891 55.1282C67.4856 55.1282 69.0804 55.1282 70.675 55.1282C71.382 55.1282 72.1054 55.177 72.7959 54.9658C74.2261 54.5597 75.3605 53.3901 75.6893 51.9445C75.8374 51.3109 75.788 50.6611 75.788 50.0276C75.788 49.0693 75.788 48.1108 75.788 47.1524C75.788 45.9341 76.0675 44.3585 75.4099 43.2539C74.555 41.8245 72.763 40.996 71.2833 40.3463C69.179 39.4203 66.9759 38.7218 64.7565 38.1045C62.6029 37.5035 60.4492 36.9838 58.2625 36.5126C57.5064 36.3502 56.7666 36.1877 56.0103 36.0416C54.4977 35.7492 53.3798 34.4822 52.1796 33.5725C49.73 31.8019 47.0831 29.8851 44.1238 28.9754C42.3154 28.4232 40.4577 28.3257 38.5835 28.3257C34.9009 28.3257 31.2183 28.3257 27.5357 28.3257C26.1875 28.3257 24.9051 28.3744 23.5899 28.7156C20.9266 29.4303 18.4113 30.7785 16.0602 32.1918C14.1696 33.3288 12.3447 34.5634 10.5855 35.8629C9.13881 36.935 7.06733 35.9765 5.40685 36.6101C3.97661 37.1623 3.05592 38.4781 2.97372 39.9888C2.94087 40.6711 2.97372 41.3858 2.97372 42.0681C2.97372 42.864 2.99022 43.66 2.97372 44.4559C2.95723 45.0732 2.71063 45.4305 2.38183 45.9016C2.00369 46.4214 1.72424 46.9899 1.52699 47.6072C0.50766 50.5799 1.54334 54.5434 5.07805 55.0958C6.72218 55.3556 8.51407 55.1607 10.1745 55.1607C10.7336 55.1607 11.2761 55.1607 11.835 55.1607C13.1174 55.1607 13.1174 53.2115 11.835 53.2115Z" fill="#3A3A3A"/>
<path id="Vector_24" d="M15.9448 40.7848C19.6933 40.7848 23.4416 40.7848 27.1901 40.7848C33.1744 40.7848 39.1422 40.7848 45.1264 40.7848C46.5075 40.7848 47.8885 40.7848 49.2695 40.7848C50.5354 40.7848 50.5354 38.8354 49.2695 38.8354C45.5211 38.8354 41.7726 38.8354 38.0243 38.8354C32.04 38.8354 26.0721 38.8354 20.0878 38.8354C18.7069 38.8354 17.3259 38.8354 15.9448 38.8354C14.679 38.8354 14.6625 40.7848 15.9448 40.7848Z" fill="#3A3A3A"/>
<path id="Vector_25" d="M27.8481 55.1607C28.4728 55.1607 29.0811 55.1607 29.7058 55.1607C30.3306 55.1607 31.1197 55.047 31.728 55.2419C32.402 55.4694 32.9774 56.2491 33.4543 56.7201C35.6902 58.9617 37.9095 61.2035 40.1454 63.4451C41.8389 65.1345 43.6308 66.7752 45.2256 68.5619C46.0312 69.4553 45.7516 70.3813 44.979 71.1284C44.124 71.9732 43.2691 72.8178 42.4143 73.6626C40.1619 75.8879 37.8932 78.1297 35.6408 80.355C34.8845 81.1023 34.0297 82.0769 32.8624 81.3135C32.3198 80.9723 31.876 80.3875 31.4321 79.9489C29.1469 77.691 26.8617 75.4331 24.5765 73.1752C23.0147 71.632 21.3212 70.1538 19.8581 68.5132C19.2169 67.7822 19.3813 66.7264 19.3813 65.833C19.3813 64.2411 19.3813 62.6654 19.3813 61.0735C19.3813 59.4653 19.3813 57.8734 19.3813 56.2653C19.3813 55.8267 19.4306 55.3394 19.3813 54.9009C19.3649 54.8196 19.4141 54.6897 19.3813 54.6246C19.2662 54.381 18.5921 55.0633 18.8552 55.177C18.9703 55.2257 19.2334 55.177 19.3484 55.177C19.9897 55.177 20.6308 55.177 21.272 55.177C22.5378 55.177 22.5378 53.2276 21.272 53.2276C19.9567 53.2276 17.54 52.7566 17.392 54.6409C17.3098 55.6643 17.392 56.7364 17.392 57.7598C17.392 60.8948 17.3592 64.0136 17.392 67.1488C17.4085 68.3507 17.8523 69.3092 18.6908 70.1538C19.5128 70.966 20.3185 71.762 21.1405 72.5742C23.7051 75.1082 26.2533 77.6261 28.8181 80.1601C29.5579 80.8911 30.2977 81.6383 31.054 82.3693C32.5336 83.7988 34.7038 83.9124 36.2327 82.4993C38.1726 80.7287 39.9647 78.8119 41.8389 76.9601C43.039 75.7743 44.2392 74.5885 45.4393 73.4027C46.1791 72.6717 47.0669 71.9569 47.4449 70.9498C48.5137 68.1559 45.3571 65.9467 43.6308 64.2085C41.1154 61.6745 38.6001 59.1405 36.0683 56.6227C35.3285 55.8916 34.6051 55.1282 33.8653 54.3973C32.698 53.2439 31.3499 53.2115 29.8209 53.2115C29.1469 53.2115 28.4728 53.2115 27.8152 53.2115C26.5822 53.2115 26.5658 55.1607 27.8481 55.1607Z" fill="#D80000"/>
<path id="Vector_26" d="M33.4869 73.8737L26.1546 66.9538C25.7764 66.5964 25.7599 65.9953 26.1217 65.6218L28.4561 63.2176C29.344 62.3079 30.2647 61.8045 31.2511 61.7069C32.2374 61.6094 33.1253 61.9344 33.9144 62.6816C34.4733 63.2015 34.8186 63.8024 34.9502 64.4685C35.0817 65.1344 35.0159 65.7843 34.7528 66.434C34.4898 67.0837 34.0788 67.701 33.5198 68.2858L32.3525 69.4878C32.1552 69.6827 32.1717 69.9914 32.369 70.1863L34.8021 72.493C35.1803 72.8503 35.1968 73.4513 34.835 73.8249L34.8186 73.8412C34.4733 74.2148 33.8651 74.231 33.4869 73.8737ZM30.4291 68.367C30.6263 68.5619 30.9386 68.5456 31.136 68.3507L32.3361 67.1162C32.8293 66.5964 33.0923 66.0765 33.1416 65.5243C33.1746 64.9719 32.9937 64.5172 32.5827 64.111C32.1388 63.6888 31.6621 63.5263 31.136 63.6075C30.6098 63.6888 30.1003 63.9812 29.5906 64.5172L28.3904 65.7517C28.1932 65.9467 28.2095 66.2553 28.4068 66.4502L30.4291 68.367Z" fill="#D80000"/>
<path id="Vector_27" d="M30.6921 74.2636C30.314 73.9061 30.2976 73.3052 30.6593 72.9315L33.8158 69.6666C34.1775 69.2929 34.7859 69.2766 35.1639 69.6341C35.542 69.9914 35.5585 70.5924 35.1968 70.966L32.0403 74.231C31.6786 74.6046 31.0703 74.6209 30.6921 74.2636Z" fill="#D80000"/>
<path id="Vector_28" d="M149.868 28.7968H154.143C154.455 28.7968 154.719 29.0566 154.719 29.3653V32.3054C154.719 32.5003 154.982 32.5815 155.096 32.4191L157.628 29.0241C157.743 28.878 157.908 28.7968 158.088 28.7968H162.494C162.971 28.7968 163.234 29.349 162.954 29.7063L159.306 34.3197C159.157 34.4983 159.141 34.7582 159.272 34.9694L163.382 41.7106C163.613 42.0842 163.333 42.5715 162.888 42.5715H158.154C157.941 42.5715 157.743 42.4578 157.645 42.2792L155.524 38.4456C155.474 38.3482 155.327 38.3319 155.244 38.4131L154.866 38.8517C154.785 38.9492 154.734 39.0792 154.734 39.2253V42.003C154.734 42.3117 154.471 42.5715 154.16 42.5715H149.885C149.573 42.5715 149.309 42.3117 149.309 42.003V29.3653C149.293 29.0404 149.539 28.7968 149.868 28.7968Z" fill="#D80000"/>
<path id="Vector_29" d="M94.8262 42.8477C92.771 42.8477 91.1928 42.4904 90.0913 41.7919C89.1871 41.2233 88.5952 40.3624 88.2993 39.2091C88.2007 38.803 88.4965 38.4132 88.924 38.4132H93.1163C93.3629 38.4132 93.5767 38.5593 93.6917 38.7705C93.7411 38.868 93.8233 38.9492 93.9055 39.0142C94.0864 39.1441 94.3987 39.2091 94.8262 39.2091C95.3029 39.2091 95.6317 39.1603 95.8126 39.0629C95.9935 38.9654 96.0757 38.803 96.0757 38.6081C96.0757 38.4944 96.0427 38.3969 95.977 38.3157C95.9112 38.2345 95.7797 38.1532 95.5825 38.072C95.3851 37.9908 95.1056 37.9096 94.744 37.8284C94.3823 37.7471 93.9055 37.6335 93.2972 37.5198C92.6066 37.3898 91.9819 37.2111 91.4065 36.9999C90.8311 36.7887 90.3379 36.4963 89.9104 36.139C89.4831 35.7816 89.1543 35.3431 88.924 34.8232C88.6939 34.3034 88.5787 33.6861 88.5787 32.9877C88.5787 32.2242 88.7268 31.5582 89.0391 30.9897C89.335 30.4212 89.7625 29.95 90.3214 29.5764C90.8805 29.2028 91.5381 28.9266 92.3107 28.7481C93.0835 28.5693 93.922 28.4718 94.859 28.4718C96.8154 28.4718 98.3279 28.8454 99.3636 29.609C100.169 30.1937 100.728 30.9572 101.041 31.8831C101.172 32.2892 100.86 32.7115 100.432 32.7115H96.2729C96.0592 32.7115 95.8291 32.614 95.7139 32.4354C95.681 32.3704 95.6153 32.3216 95.566 32.273C95.4181 32.1592 95.1878 32.1106 94.8755 32.1106C94.3165 32.1106 94.037 32.3216 94.037 32.7277C94.037 32.8415 94.0699 32.9552 94.1521 33.0364C94.2343 33.1339 94.3493 33.2151 94.5302 33.2801C94.7111 33.345 94.9577 33.4262 95.2535 33.4913C95.566 33.5562 95.9441 33.6212 96.4208 33.7024C97.0292 33.7998 97.6374 33.9461 98.2457 34.1247C98.8541 34.3034 99.413 34.5471 99.9062 34.8882C100.399 35.2131 100.794 35.6354 101.106 36.1553C101.419 36.675 101.567 37.3248 101.567 38.1208C101.567 38.933 101.402 39.6314 101.09 40.2324C100.778 40.8335 100.334 41.3208 99.7418 41.7106C99.1664 42.1006 98.4594 42.393 97.6374 42.5716C96.7661 42.7503 95.8454 42.8477 94.8262 42.8477Z" fill="#D80000"/>
<path id="Vector_30" d="M106.104 28.7805H110.247C110.609 28.7805 110.888 29.0729 110.888 29.414V33.0852C110.888 33.3125 111.069 33.4913 111.299 33.4913H113.617C113.847 33.4913 114.028 33.3125 114.028 33.0852V29.414C114.028 29.0566 114.324 28.7805 114.669 28.7805H118.812C119.174 28.7805 119.454 29.0729 119.454 29.414V41.9218C119.454 42.2792 119.158 42.5553 118.812 42.5553H114.653C114.291 42.5553 114.012 42.263 114.012 41.9218V38.0557C114.012 37.8284 113.831 37.6496 113.601 37.6496H111.283C111.053 37.6496 110.872 37.8284 110.872 38.0557V41.9218C110.872 42.2792 110.576 42.5553 110.231 42.5553H106.104C105.742 42.5553 105.463 42.263 105.463 41.9218V29.414C105.463 29.0566 105.742 28.7805 106.104 28.7805Z" fill="#D80000"/>
<path id="Vector_31" d="M124.649 28.7805H134.678C135.038 28.7805 135.318 29.0729 135.318 29.414V31.9155C135.318 32.2729 135.023 32.5491 134.678 32.5491H129.729C129.564 32.5491 129.432 32.6791 129.432 32.8415V33.6862C129.432 33.8486 129.564 33.9786 129.729 33.9786H134.612C134.973 33.9786 135.252 34.271 135.252 34.612V36.5289C135.252 36.8862 134.957 37.1623 134.612 37.1623H129.729C129.564 37.1623 129.432 37.2923 129.432 37.4547V38.4944C129.432 38.6568 129.564 38.7867 129.729 38.7867H134.678C135.038 38.7867 135.318 39.0791 135.318 39.4203V41.9218C135.318 42.2792 135.023 42.5553 134.678 42.5553H124.649C124.287 42.5553 124.007 42.263 124.007 41.9218V29.414C124.007 29.0566 124.303 28.7805 124.649 28.7805Z" fill="#D80000"/>
<path id="Vector_32" d="M140.332 28.7805H144.476C144.838 28.7805 145.116 29.0729 145.116 29.414V41.9218C145.116 42.2792 144.821 42.5553 144.476 42.5553H140.332C139.97 42.5553 139.692 42.263 139.692 41.9218V29.414C139.675 29.0566 139.97 28.7805 140.332 28.7805Z" fill="#D80000"/>
<path id="Vector_33" d="M167.837 28.7805H171.981C172.343 28.7805 172.622 29.0729 172.622 29.414V33.2313C172.622 33.3613 172.737 33.475 172.868 33.475H175.499C175.631 33.475 175.745 33.3613 175.745 33.2313V29.414C175.745 29.0566 176.042 28.7805 176.387 28.7805H180.529C180.891 28.7805 181.171 29.0729 181.171 29.414V41.9218C181.171 42.2792 180.874 42.5553 180.529 42.5553H176.387C176.025 42.5553 175.745 42.263 175.745 41.9218V37.9096C175.745 37.7796 175.631 37.6659 175.499 37.6659H172.868C172.737 37.6659 172.622 37.7796 172.622 37.9096V41.9218C172.622 42.2792 172.326 42.5553 171.981 42.5553H167.837C167.476 42.5553 167.197 42.263 167.197 41.9218V29.414C167.197 29.0566 167.492 28.7805 167.837 28.7805Z" fill="#D80000"/>
<path id="Vector_34" d="M193.945 40.7036H190.788C190.607 40.7036 190.46 40.8173 190.41 40.9798L190.098 42.0843C190.015 42.3604 189.769 42.5555 189.473 42.5555H185.872C185.429 42.5555 185.116 42.1168 185.264 41.6945L189.901 29.1867C189.999 28.943 190.229 28.7643 190.509 28.7643H195.03C195.293 28.7643 195.539 28.9267 195.638 29.1867L200.274 41.6945C200.422 42.1168 200.11 42.5555 199.665 42.5555H195.244C194.947 42.5555 194.701 42.3604 194.619 42.0843L194.306 40.9798C194.274 40.8173 194.125 40.7036 193.945 40.7036ZM191.708 37.3574H193.007C193.238 37.3574 193.403 37.1462 193.352 36.935L192.695 34.1248C192.613 33.7837 192.136 33.7837 192.054 34.1248L191.38 36.935C191.314 37.1624 191.479 37.3574 191.708 37.3574Z" fill="#3A3A3A"/>
<path id="Vector_35" d="M204.385 29.414C204.385 29.0566 204.68 28.7805 205.026 28.7805H212.703C214.332 28.7805 215.548 29.0729 216.336 29.6739C217.126 30.2587 217.537 31.2009 217.537 32.4679C217.537 33.1826 217.355 33.7837 216.995 34.2871C216.863 34.4659 216.715 34.6283 216.567 34.7583C216.238 35.0507 216.271 35.5867 216.666 35.7978C217.669 36.3502 218.162 37.3086 218.162 38.6568C218.162 39.94 217.734 40.9146 216.879 41.5645C216.025 42.2142 214.627 42.5553 212.688 42.5553H205.026C204.663 42.5553 204.385 42.263 204.385 41.9218V29.414ZM210.731 34.271C211.29 34.271 211.701 34.1735 211.947 33.9947C212.21 33.8161 212.326 33.5237 212.326 33.1013C212.326 32.6952 212.194 32.4028 211.947 32.2242C211.684 32.0455 211.306 31.9643 210.779 31.9643H209.86C209.695 31.9643 209.563 32.0943 209.563 32.2567V33.9623C209.563 34.1247 209.695 34.2547 209.86 34.2547H210.731V34.271ZM211.01 39.339C211.75 39.339 212.275 39.2415 212.555 39.0629C212.834 38.8842 212.966 38.5593 212.966 38.1045C212.966 37.6659 212.819 37.3572 212.539 37.1623C212.26 36.9836 211.733 36.8862 210.961 36.8862H209.86C209.695 36.8862 209.58 37.0162 209.58 37.1623V39.0466C209.58 39.2091 209.711 39.3227 209.86 39.3227H211.01V39.339Z" fill="#3A3A3A"/>
<path id="Vector_36" d="M224.82 32.9552H222.337C221.975 32.9552 221.696 32.6628 221.696 32.3216V29.414C221.696 29.0566 221.992 28.7805 222.337 28.7805H234.01C234.371 28.7805 234.651 29.0729 234.651 29.414V32.3216C234.651 32.6791 234.356 32.9552 234.01 32.9552H231.528C231.165 32.9552 230.886 33.2476 230.886 33.5886V41.9218C230.886 42.2792 230.591 42.5553 230.246 42.5553H226.102C225.74 42.5553 225.46 42.263 225.46 41.9218V33.5886C225.46 33.2313 225.166 32.9552 224.82 32.9552Z" fill="#3A3A3A"/>
<path id="Vector_37" d="M245.387 42.8477C244.368 42.8477 243.414 42.7177 242.526 42.4416C241.622 42.1655 240.849 41.7431 240.175 41.1746C239.501 40.6061 238.974 39.8751 238.58 38.9817C238.186 38.0883 237.989 37.0162 237.989 35.7816V35.3756C237.989 34.1898 238.186 33.1826 238.58 32.3216C238.974 31.4607 239.501 30.746 240.175 30.1775C240.849 29.6089 241.637 29.1866 242.526 28.9105C243.43 28.6342 244.383 28.5043 245.387 28.5043C246.406 28.5043 247.359 28.6342 248.247 28.9105C249.151 29.1866 249.924 29.6089 250.598 30.1775C251.272 30.746 251.798 31.4607 252.193 32.3216C252.588 33.1826 252.785 34.2059 252.785 35.3756V35.7653C252.785 36.9836 252.588 38.0396 252.193 38.933C251.798 39.8264 251.272 40.5573 250.598 41.1421C249.924 41.7269 249.135 42.1492 248.247 42.4254C247.359 42.7016 246.406 42.8477 245.387 42.8477ZM245.387 38.6406C245.961 38.6406 246.423 38.4132 246.751 37.9745C247.08 37.536 247.245 36.805 247.245 35.7653V35.3756C247.245 34.4334 247.08 33.7511 246.751 33.3288C246.423 32.9064 245.961 32.6953 245.387 32.6953C244.811 32.6953 244.351 32.9064 244.022 33.3288C243.694 33.7511 243.529 34.4334 243.529 35.3756V35.7653C243.529 36.805 243.694 37.536 244.022 37.9745C244.351 38.4132 244.811 38.6406 245.387 38.6406Z" fill="#3A3A3A"/>
</g>
</svg>
