<svg width="146" height="146" viewBox="0 0 146 146" fill="none" xmlns="http://www.w3.org/2000/svg">
<circle opacity="0.1" cx="73" cy="73" r="73" fill="#D80000"/>
<circle opacity="0.4" cx="73" cy="73" r="60" fill="#D80000"/>
<circle cx="73" cy="73" r="50" fill="#D80000"/>
<path d="M65.5 62.9994V82.9994C65.4999 83.2218 65.5592 83.4402 65.6717 83.632C65.7842 83.8239 65.9459 83.9823 66.14 84.0908C66.3342 84.1993 66.5537 84.2541 66.7761 84.2495C66.9985 84.2448 67.2156 84.1809 67.405 84.0644L83.655 74.0644C83.837 73.9525 83.9873 73.7959 84.0916 73.6095C84.1958 73.423 84.2506 73.213 84.2506 72.9994C84.2506 72.7858 84.1958 72.5757 84.0916 72.3893C83.9873 72.2028 83.837 72.0462 83.655 71.9344L67.405 61.9344C67.2156 61.8178 66.9985 61.7539 66.7761 61.7493C66.5537 61.7447 66.3342 61.7994 66.14 61.908C65.9459 62.0165 65.7842 62.1748 65.6717 62.3667C65.5592 62.5586 65.4999 62.777 65.5 62.9994Z" fill="white"/>
</svg>
