<svg width="20" height="21" viewBox="0 0 20 21" fill="none" xmlns="http://www.w3.org/2000/svg">
<g id="tabler-icon-star-filled" opacity="0.2">
<path id="Vector" d="M6.86922 6.6166L1.55255 7.38744L1.45838 7.4066C1.31583 7.44445 1.18588 7.51944 1.08179 7.62394C0.977707 7.72843 0.903219 7.85868 0.865934 8.00137C0.82865 8.14407 0.829905 8.29411 0.869572 8.43616C0.909239 8.57822 0.985896 8.7072 1.09172 8.80994L4.94338 12.5591L4.03505 17.8549L4.02422 17.9466C4.01549 18.094 4.0461 18.2411 4.11292 18.3729C4.17974 18.5046 4.28037 18.6162 4.4045 18.6962C4.52862 18.7762 4.67179 18.8218 4.81934 18.8284C4.96689 18.8349 5.11352 18.8021 5.24422 18.7333L9.99922 16.2333L14.7434 18.7333L14.8267 18.7716C14.9643 18.8258 15.1138 18.8424 15.2598 18.8197C15.4059 18.7971 15.5434 18.736 15.658 18.6427C15.7727 18.5494 15.8605 18.4272 15.9124 18.2888C15.9643 18.1504 15.9785 18.0006 15.9534 17.8549L15.0442 12.5591L18.8975 8.8091L18.9625 8.73827C19.0554 8.62391 19.1163 8.48698 19.139 8.34143C19.1617 8.19588 19.1454 8.04692 19.0918 7.90971C19.0382 7.7725 18.9492 7.65196 18.8338 7.56036C18.7184 7.46876 18.5808 7.40938 18.435 7.38827L13.1184 6.6166L10.7417 1.79994C10.6729 1.66038 10.5665 1.54286 10.4344 1.46069C10.3023 1.37851 10.1498 1.33496 9.99422 1.33496C9.83864 1.33496 9.68616 1.37851 9.55406 1.46069C9.42195 1.54286 9.31549 1.66038 9.24672 1.79994L6.86922 6.6166Z" fill="#D80000"/>
</g>
</svg>
