<svg width="44" height="44" viewBox="0 0 44 44" fill="none" xmlns="http://www.w3.org/2000/svg">
<g id="vk 1" clip-path="url(#clip0_22_122)">
<path id="Vector" d="M44 37.8889C44 41.2647 41.2647 44 37.8889 44H6.11111C2.73656 44 0 41.2647 0 37.8889V6.11111C0 2.73533 2.73656 0 6.11111 0H37.8889C41.2647 0 44 2.73533 44 6.11111V37.8889Z" fill="#1976D2"/>
<path id="Vector_2" d="M36.5904 14.7177C36.6466 14.5331 36.6735 14.362 36.666 14.2093C36.6478 13.7668 36.3435 13.4453 35.6273 13.4453H32.4275C31.6195 13.4453 31.2468 13.9342 31.0293 14.4244C31.0293 14.4244 29.0346 18.5298 26.7355 21.237C25.99 22.0204 25.6111 22.0009 25.2078 22.0009C24.9915 22.0009 24.4451 21.7393 24.4451 21.0219V14.6846C24.4451 13.8364 24.2337 13.4453 23.5504 13.4453H17.8684C17.3709 13.4453 17.1118 13.8364 17.1118 14.2288C17.1118 15.044 18.2093 15.2395 18.334 17.5239V21.952C18.334 23.0275 18.1469 23.2231 17.7437 23.2231C16.6559 23.2231 14.5146 19.5564 13.0809 14.7506C12.7704 13.8046 12.46 13.4453 11.6521 13.4453H8.42177C7.48922 13.4453 7.33398 13.9024 7.33398 14.3913C7.33398 15.2726 8.06733 20.0368 12.0701 25.5148C14.9729 29.487 18.7973 31.7786 22.1828 31.7786C24.2337 31.7786 24.4438 31.2568 24.4438 30.4415V26.8091C24.4451 25.8301 24.6688 25.6675 25.3215 25.6675C25.7871 25.6675 26.7368 25.9731 28.57 28.112C30.6846 30.5784 31.0684 31.7786 32.2808 31.7786H35.4806C36.2237 31.7786 36.6502 31.467 36.6673 30.862C36.6709 30.708 36.6489 30.5357 36.5989 30.3438C36.3618 29.6398 35.274 27.9189 33.9173 26.2786C33.1657 25.3706 32.4238 24.471 32.0828 23.9821C31.8542 23.6631 31.7675 23.4382 31.7784 23.2231C31.7895 22.997 31.9068 22.7819 32.0828 22.4813C32.0509 22.4813 36.1869 16.6744 36.5904 14.7177Z" fill="white"/>
</g>
<defs>
<clipPath id="clip0_22_122">
<rect width="44" height="44" fill="white"/>
</clipPath>
</defs>
</svg>
