<svg width="44" height="44" viewBox="0 0 44 44" fill="none" xmlns="http://www.w3.org/2000/svg">
<g clip-path="url(#clip0_22_125)">
<path d="M37.4 0H6.6C2.95492 0 0 2.95492 0 6.6V37.4C0 41.0451 2.95492 44 6.6 44H37.4C41.0451 44 44 41.0451 44 37.4V6.6C44 2.95492 41.0451 0 37.4 0Z" fill="#45D354"/>
<path d="M26.4686 23.4605C26.2107 23.2886 25.9529 23.2027 25.6951 23.5464L24.6639 24.9214C24.4061 25.0933 24.2342 25.1792 23.8904 25.0073C22.6014 24.3198 20.7967 23.5464 19.2498 20.9683C19.1639 20.6245 19.3357 20.4527 19.5076 20.2808L20.281 19.0777C20.4529 18.9058 20.367 18.7339 20.281 18.562L19.2498 16.0698C18.992 15.3823 18.7342 15.4683 18.4764 15.4683H17.7889C17.617 15.4683 17.2732 15.5542 16.9295 15.898C15.0389 17.7886 15.8123 20.4527 17.1873 22.1714C17.4451 22.5152 19.1639 25.6089 22.8592 27.2417C25.6092 28.4448 26.2107 28.273 26.9842 28.1011C27.9295 28.0152 28.8748 27.2417 29.3045 26.4683C29.3904 26.2105 29.8201 25.0933 29.4764 24.9214" fill="white"/>
<path d="M22.6875 33C19.1641 33 16.5 31.1094 16.5 31.1094L12.2891 32.2266L13.3203 28.1016C13.3203 28.1016 11.6016 25.4375 11.6016 22.0859C11.6016 15.8984 16.6719 10.7422 22.9453 10.7422C28.7891 10.7422 33.7734 15.2969 33.7734 21.6562C33.7734 27.8438 28.7891 32.9141 22.6875 33ZM9.02344 35.4922L16.1562 33.5156C18.222 34.5732 20.5244 35.0837 22.8436 34.9982C25.1628 34.9128 27.4214 34.2344 29.4038 33.0277C31.3862 31.8211 33.0262 30.1264 34.1673 28.1056C35.3084 26.0847 35.9125 23.8051 35.9219 21.4844C35.9219 14.0938 30.0781 8.16406 22.6875 8.16406C20.3154 8.17013 17.9862 8.79754 15.932 9.9838C13.8778 11.1701 12.1702 12.8738 10.9793 14.9253C9.78841 16.9768 9.15572 19.3045 9.14427 21.6766C9.13282 24.0487 9.74301 26.3824 10.9141 28.4453" fill="white"/>
</g>
<defs>
<clipPath id="clip0_22_125">
<rect width="44" height="44" fill="white"/>
</clipPath>
</defs>
</svg>
